<?xml version="1.0" standalone="no"?>
<!DOCTYPE svg PUBLIC "-//W3C//DTD SVG 20010904//EN"
 "http://www.w3.org/TR/2001/REC-SVG-20010904/DTD/svg10.dtd">
<svg version="1.0" xmlns="http://www.w3.org/2000/svg"
 width="510.000000pt" height="510.000000pt" viewBox="0 0 510.000000 510.000000"
 preserveAspectRatio="xMidYMid meet">
<metadata>
Created by potrace 1.14, written by Peter Selinger 2001-2017
</metadata>
<g transform="translate(0.000000,510.000000) scale(0.100000,-0.100000)"
fill="#000000" stroke="none">
<path d="M1435 4801 c-22 -4 -65 -19 -96 -34 -57 -28 -157 -105 -158 -121 -1
-5 -9 -16 -19 -25 -10 -9 -33 -47 -52 -86 l-35 -70 0 -1915 0 -1915 33 -67
c17 -37 48 -84 67 -105 19 -21 35 -41 35 -45 0 -5 7 -8 16 -8 8 0 13 -4 10 -9
-3 -4 10 -17 29 -27 19 -10 35 -21 35 -25 0 -4 10 -10 23 -14 12 -4 24 -8 27
-9 3 -1 25 -10 50 -19 42 -16 118 -17 1110 -14 586 1 1072 5 1080 8 8 3 28 11
43 17 16 7 35 12 43 12 8 0 14 4 14 8 0 4 13 15 28 24 30 18 132 113 132 124
0 3 8 18 19 32 10 15 28 54 40 86 l22 59 0 1888 -1 1887 -21 59 c-12 32 -26
63 -30 69 -5 6 -6 14 -2 17 3 4 -1 7 -10 7 -10 0 -17 6 -17 13 0 13 -84 103
-116 125 -10 7 -48 27 -84 45 l-65 32 -1055 1 c-580 1 -1073 -1 -1095 -5z
m2172 -154 c73 -37 128 -93 163 -168 l30 -65 -3 -1869 c-1 -1029 -5 -1877 -8
-1885 -37 -103 -96 -166 -196 -212 l-64 -29 -1042 3 -1042 3 -50 26 c-68 36
-119 86 -157 156 l-33 58 0 1880 0 1880 26 55 c31 65 109 145 156 161 18 6 33
14 33 18 0 4 17 8 37 9 21 2 38 4 39 5 2 1 465 2 1031 1 l1028 -1 52 -26z"/>
<path d="M1629 4460 c-94 -6 -146 -36 -179 -104 l-22 -46 -1 -745 c-1 -410 2
-745 6 -745 5 0 5 -5 1 -11 -12 -20 39 -100 82 -130 l43 -29 940 0 c735 0 946
3 963 13 43 24 87 72 92 99 2 15 8 33 12 39 3 6 6 349 6 763 -1 811 0 794 -54
842 -67 59 2 55 -946 57 -477 1 -901 0 -943 -3z m1790 -144 c14 -15 16 -87 17
-754 2 -600 -1 -741 -12 -758 l-13 -22 -905 0 c-729 0 -909 3 -923 13 -17 13
-18 55 -20 748 -1 547 2 740 11 758 9 18 22 25 56 29 25 3 434 4 909 3 783 -1
865 -3 880 -17z"/>
<path d="M2885 4204 c-27 -8 -57 -16 -65 -18 -8 -2 -22 -6 -30 -8 -38 -14
-168 -49 -190 -53 -14 -2 -26 -4 -27 -6 -2 -1 -6 -2 -10 -4 -5 -1 -21 -7 -38
-14 -16 -7 -48 -16 -71 -20 -70 -13 -130 -49 -144 -87 -8 -19 -16 -34 -20 -34
-3 0 -6 -63 -5 -140 0 -89 -3 -140 -10 -140 -6 0 -6 -3 1 -8 13 -9 13 -105 -1
-114 -7 -5 -7 -8 0 -8 6 0 10 -38 10 -94 0 -82 -2 -96 -18 -100 -9 -2 -15 -1
-12 4 2 4 -30 8 -73 9 -66 1 -86 -3 -138 -28 -79 -38 -153 -111 -155 -156 -1
-11 -2 -41 -4 -66 -2 -50 13 -106 36 -133 47 -56 101 -96 131 -96 9 0 18 -5
20 -11 2 -7 32 -12 78 -12 93 0 152 25 208 88 57 64 62 102 62 448 1 223 4
297 13 298 49 3 92 12 98 20 3 5 13 7 22 3 9 -3 17 -2 17 3 0 5 10 10 23 11
32 2 119 19 163 32 22 6 62 14 89 17 28 3 67 11 87 18 20 7 42 9 49 5 8 -6 12
-47 12 -141 l0 -134 -107 3 c-72 3 -106 0 -106 -7 0 -6 -3 -10 -7 -9 -17 4
-90 -42 -124 -79 -36 -38 -59 -102 -59 -161 0 -41 27 -112 50 -134 11 -11 20
-23 20 -28 0 -6 7 -10 15 -10 7 0 18 -7 22 -15 13 -22 120 -57 175 -57 26 1
60 8 77 16 16 9 36 16 43 16 20 0 84 65 98 100 7 16 15 30 19 30 10 0 10 9 11
483 1 425 1 428 -21 467 -13 22 -28 40 -35 40 -7 0 -14 5 -16 11 -6 17 -109
19 -163 3z m108 -192 c2 -56 0 -62 -18 -63 -11 0 -27 -2 -35 -4 -60 -16 -101
-24 -139 -30 -23 -3 -55 -11 -70 -16 -14 -6 -26 -9 -26 -8 0 1 -9 -1 -20 -4
-11 -4 -56 -13 -100 -21 -44 -8 -90 -17 -102 -20 -70 -18 -66 -20 -63 44 2 43
18 56 89 71 31 6 62 16 69 21 6 6 12 8 12 5 0 -4 18 0 39 8 22 7 41 11 44 8 3
-2 17 3 31 12 14 9 28 16 31 15 10 -3 68 11 130 30 71 22 107 28 118 20 4 -3
8 -34 10 -68z m-40 -613 c40 -10 42 -12 40 -47 -1 -20 -2 -51 -2 -69 -1 -21
-12 -44 -30 -65 -31 -35 -87 -63 -97 -47 -3 5 -9 7 -14 4 -17 -11 -101 37
-112 64 -48 117 62 199 215 160z m-689 -179 c20 -7 23 -14 21 -67 -1 -32 -4
-65 -8 -73 -3 -8 -7 -22 -10 -31 -7 -22 -75 -52 -114 -51 -59 2 -132 54 -134
95 -4 66 13 96 71 125 42 21 122 22 174 2z"/>
<path d="M2328 2346 c-21 -8 -38 -12 -38 -11 0 2 -27 -7 -59 -20 -33 -13 -62
-21 -64 -19 -2 3 -10 -2 -17 -11 -7 -8 -18 -15 -26 -15 -7 0 -34 -14 -59 -31
-42 -28 -46 -34 -43 -66 2 -29 10 -39 36 -53 33 -18 33 -18 93 16 61 34 137
64 164 64 8 0 15 5 15 12 0 6 3 8 7 5 3 -4 13 -1 21 6 13 10 14 9 8 -1 -7 -11
-4 -12 10 -4 28 15 271 8 292 -8 1 -2 5 -3 10 -4 106 -28 176 -64 267 -136 65
-52 79 -67 129 -138 84 -117 127 -250 130 -400 1 -51 -3 -107 -9 -126 -6 -18
-11 -40 -9 -50 1 -9 -2 -16 -7 -16 -5 0 -9 -11 -9 -24 0 -12 -11 -44 -25 -70
-14 -26 -25 -54 -25 -62 0 -7 -3 -14 -8 -14 -4 0 -18 -18 -32 -40 -14 -22 -28
-40 -32 -40 -5 0 -8 -7 -8 -15 0 -8 -3 -15 -7 -15 -5 0 -29 -20 -55 -45 -54
-54 -113 -95 -133 -95 -8 0 -15 -4 -15 -9 0 -5 -15 -14 -32 -21 -18 -7 -46
-18 -63 -25 -44 -20 -148 -35 -234 -36 -77 -1 -196 18 -231 36 -16 8 -36 15
-44 15 -8 0 -21 7 -30 15 -8 9 -17 14 -19 13 -11 -8 -119 74 -177 133 -80 84
-83 87 -100 127 -8 17 -19 32 -23 32 -5 0 -5 5 -2 10 3 6 2 10 -4 10 -5 0 -13
15 -16 33 -4 17 -11 37 -14 42 -13 18 -30 89 -32 135 -1 25 -6 52 -10 61 -5 9
-6 19 -3 22 4 3 8 41 10 84 5 104 64 273 112 322 25 26 48 101 31 101 -4 0
-11 9 -14 20 -10 32 -70 27 -100 -7 -13 -16 -25 -33 -25 -40 0 -6 -4 -13 -9
-15 -13 -5 -81 -136 -81 -156 0 -10 -4 -22 -9 -27 -6 -6 -12 -22 -15 -37 -2
-15 -7 -31 -9 -35 -8 -13 -21 -153 -19 -208 4 -101 22 -225 33 -225 5 0 8 -3
7 -7 -4 -21 61 -176 81 -193 4 -3 19 -25 35 -49 38 -59 130 -152 186 -187 25
-16 51 -34 58 -41 7 -6 28 -17 47 -24 19 -7 35 -17 35 -21 0 -4 18 -11 40 -14
22 -4 40 -10 40 -14 0 -9 42 -20 135 -35 48 -8 214 -9 272 -1 72 9 93 14 125
30 17 9 37 16 45 16 17 0 110 49 137 72 11 10 24 18 30 18 11 0 17 5 119 103
42 41 77 79 77 84 0 5 9 18 20 28 11 10 20 23 20 30 0 6 8 20 18 31 17 19 33
54 59 134 8 25 17 52 20 60 24 65 35 158 30 255 -6 96 -8 112 -19 145 -3 8
-11 35 -18 60 -6 25 -20 62 -31 82 -10 20 -19 44 -19 53 0 9 -7 18 -15 21 -8
4 -15 14 -15 23 0 19 -84 126 -146 187 -87 84 -195 146 -346 196 -68 23 -93
26 -220 26 -94 1 -156 -4 -180 -12z"/>
<path d="M2455 1920 c-58 -10 -145 -41 -145 -51 0 -5 -8 -9 -17 -9 -10 0 -39
-22 -64 -48 -82 -84 -125 -186 -123 -292 5 -205 168 -372 376 -387 137 -10
291 74 363 198 34 60 54 143 49 214 -7 133 -71 243 -178 312 -42 27 -107 53
-146 58 -14 2 -36 6 -50 8 -14 2 -43 1 -65 -3z m128 -145 c35 -10 67 -29 95
-55 43 -41 78 -97 68 -108 -3 -3 0 -12 6 -20 13 -15 14 -121 1 -131 -4 -3 -9
-17 -11 -31 -1 -13 -11 -34 -22 -45 -11 -12 -20 -27 -20 -33 0 -7 -4 -12 -10
-12 -5 0 -17 -8 -27 -18 -33 -34 -113 -59 -178 -56 -33 2 -61 8 -63 13 -2 5
-10 7 -18 4 -8 -3 -14 0 -14 6 0 6 -6 11 -14 11 -25 0 -101 87 -119 137 -23
65 -29 110 -17 118 6 4 8 10 5 15 -22 36 110 200 161 200 12 0 25 4 28 8 9 15
94 13 149 -3z"/>
</g>
</svg>
