<?xml version="1.0" standalone="no"?>
<!DOCTYPE svg PUBLIC "-//W3C//DTD SVG 20010904//EN"
 "http://www.w3.org/TR/2001/REC-SVG-20010904/DTD/svg10.dtd">
<svg version="1.0" xmlns="http://www.w3.org/2000/svg"
 width="276.000000pt" height="276.000000pt" viewBox="0 0 276.000000 276.000000"
 preserveAspectRatio="xMidYMid meet">
<metadata>
Created by potrace 1.14, written by Peter Selinger 2001-2017
</metadata>
<g transform="translate(0.000000,276.000000) scale(0.100000,-0.100000)"
fill="#000000" stroke="none">
<path d="M112 2729 c-26 -13 -55 -39 -70 -62 l-27 -41 0 -1246 0 -1246 27 -41
c16 -24 44 -49 70 -62 l44 -21 1224 0 1224 0 44 21 c26 13 54 38 70 62 l27 41
0 1246 0 1246 -27 41 c-16 24 -44 49 -70 62 l-44 21 -1225 0 -1224 0 -43 -21z
m1142 -117 c-5 -16 -5 -16 9 1 8 9 20 17 28 17 11 0 12 -2 1 -9 -11 -6 -10
-11 3 -25 20 -20 27 -20 23 -2 -2 8 2 14 7 13 6 -1 9 -8 9 -14 -1 -7 3 -13 8
-13 5 0 8 10 6 23 l-3 22 625 3 625 2 18 -21 c16 -20 17 -93 17 -1228 0 -1046
-2 -1210 -15 -1227 -13 -17 -14 -11 -15 69 0 97 -10 127 -41 127 -11 0 -28 7
-36 16 -15 14 -12 15 30 9 32 -5 47 -4 47 4 0 6 -10 12 -22 12 l-23 2 23 4 22
4 0 225 c0 188 -2 224 -14 224 -8 0 -21 8 -28 18 -40 54 -104 69 -182 42 -75
-26 -91 -25 -149 4 -56 29 -77 25 -77 -15 0 -16 -3 -29 -7 -29 -5 -1 -29 -2
-55 -4 -27 -2 -48 0 -48 4 0 7 -32 2 -85 -15 -13 -4 -29 1 -44 14 -12 11 -28
22 -34 24 -8 3 -4 13 10 29 l22 24 -157 157 c-121 121 -163 157 -183 157 -14
0 -28 3 -31 6 -3 3 9 28 28 55 74 111 82 259 20 394 -30 65 -118 153 -185 184
l-51 24 0 134 c0 105 -3 133 -12 127 -10 -6 -10 -4 -2 7 7 8 11 43 10 79 -1
60 -3 65 -22 62 -16 -2 -25 5 -34 27 -7 17 -16 28 -21 25 -5 -3 -6 -10 -3 -16
4 -7 2 -8 -4 -4 -6 4 -9 13 -5 21 3 10 -1 15 -15 15 -12 0 -24 5 -27 10 -8 13
28 13 41 0 13 -13 76 -31 69 -20 -3 5 3 13 12 19 14 8 15 11 3 12 -8 1 -19 1
-23 0 -5 -1 -7 4 -4 11 2 7 12 12 21 12 16 -2 16 -1 1 16 -15 17 -11 50 6 50
5 0 9 8 9 18 0 13 -2 14 -9 4 -11 -18 -47 -10 -43 8 3 11 -1 10 -15 -2 -22
-20 -67 -13 -59 8 9 22 -28 16 -42 -6 -7 -12 -17 -18 -21 -15 -5 2 -11 -2 -15
-10 -4 -11 1 -15 19 -15 29 0 41 -16 17 -23 -9 -2 -26 -8 -36 -13 -14 -5 -17
-4 -12 4 4 8 0 12 -11 12 -15 0 -16 2 -3 10 8 5 10 10 5 10 -6 0 -16 -5 -23
-12 -16 -16 -16 -41 1 -32 6 4 3 -2 -7 -14 -11 -12 -17 -22 -15 -23 2 0 17 -3
34 -5 39 -7 45 -14 12 -14 -14 0 -29 -4 -32 -10 -3 -5 -1 -10 5 -10 6 0 8 -5
5 -11 -5 -6 -11 -4 -19 7 -12 15 -13 15 -29 -1 -9 -9 -20 -14 -24 -12 -5 3
-17 1 -28 -4 -18 -7 -18 -8 5 -9 14 -2 31 -2 39 -1 8 2 10 -2 5 -10 -5 -9 1
-10 25 -6 28 6 30 5 17 -8 -19 -19 -28 -19 -64 2 -28 16 -31 16 -46 0 -10 -9
-28 -17 -42 -17 -13 0 -24 -5 -24 -11 0 -7 10 -9 24 -5 28 7 46 -11 21 -20
-10 -4 -29 3 -47 16 l-30 22 7 -23 c12 -37 11 -53 -2 -54 -7 0 -22 -8 -34 -18
-19 -17 -20 -19 -4 -31 19 -13 17 -38 -4 -47 -11 -4 -11 -8 2 -20 10 -11 12
-21 6 -30 -5 -8 -9 -10 -9 -6 0 5 -5 5 -11 2 -13 -9 19 -34 44 -35 9 0 17 -5
17 -11 0 -5 -5 -7 -11 -4 -5 4 -19 -1 -29 -10 -11 -10 -26 -15 -35 -12 -8 4
-15 2 -15 -3 0 -6 14 -10 31 -10 20 0 28 4 23 12 -4 7 -3 8 4 4 24 -15 13 -34
-17 -30 -17 3 -32 0 -37 -7 -4 -8 -3 -9 4 -5 7 4 12 3 12 -2 0 -11 -52 -22
-89 -19 -24 2 -44 27 -21 27 6 0 8 -4 5 -10 -10 -17 12 -11 26 7 11 13 11 17
1 20 -6 3 -10 9 -6 14 3 5 -5 9 -18 9 -19 0 -20 2 -8 11 11 8 12 12 2 16 -6 2
-10 8 -7 13 3 4 -5 6 -17 3 -21 -4 -21 -3 -7 9 15 13 15 15 -2 37 -17 21 -23
22 -45 12 -31 -14 -34 -14 -34 -1 0 6 9 10 20 10 11 0 20 5 20 11 0 6 -7 9
-15 5 -9 -3 -15 0 -15 8 0 8 7 16 15 20 8 3 15 1 15 -3 0 -5 7 -11 14 -14 10
-4 13 -1 10 8 -8 20 -33 26 -54 15 -10 -6 -27 -10 -37 -10 -17 1 -17 1 0 11
25 15 21 40 -11 66 -18 15 -23 25 -15 30 8 6 8 13 -3 27 -12 17 -14 18 -14 3
0 -9 -5 -17 -11 -17 -6 0 -8 -9 -3 -22 6 -20 5 -21 -10 -9 -22 19 -28 11 -13
-19 11 -22 10 -27 -11 -44 -19 -15 -21 -21 -10 -28 9 -6 3 -7 -17 -3 -29 6
-29 6 -10 -9 15 -12 17 -16 5 -17 -8 -1 -18 -1 -22 0 -15 2 -8 -12 20 -37 l27
-25 -27 16 c-33 21 -39 21 -32 2 5 -11 0 -12 -25 -5 -17 5 -31 7 -31 5 0 -3
-10 -1 -23 4 -22 8 -23 7 -19 -22 4 -25 2 -29 -12 -24 -14 6 -18 2 -15 -20 0
-4 -8 -10 -18 -14 -15 -6 -14 -8 11 -18 16 -7 35 -10 43 -7 7 3 13 1 13 -5 0
-5 6 -9 13 -8 6 1 19 1 27 0 13 -1 13 -3 1 -10 -9 -6 -29 -4 -54 5 -50 18 -52
17 -37 -1 11 -13 10 -14 -1 -10 -8 3 -23 -2 -34 -10 -19 -16 -19 -16 4 -9 29
8 25 -15 -5 -31 -10 -5 -20 -18 -20 -27 -1 -10 2 -16 6 -13 5 3 11 1 14 -4 4
-5 2 -12 -4 -16 -6 -4 -7 -11 -4 -17 5 -8 1 -9 -11 -4 -15 5 -16 4 -5 -9 7 -8
16 -12 21 -9 5 3 9 0 9 -6 0 -7 -6 -10 -12 -7 -16 5 -48 -10 -48 -23 0 -5 10
-11 23 -13 20 -5 19 -5 -3 -4 -31 2 -50 -9 -50 -29 0 -9 5 -12 12 -8 7 4 8 3
4 -4 -4 -7 -13 -12 -20 -12 -9 0 -13 -42 -14 -165 l-3 -165 265 0 c236 0 266
2 274 17 5 9 22 17 37 19 27 3 27 2 9 -17 -19 -21 -18 -21 41 -18 l60 3 24
-43 c107 -194 370 -267 558 -155 30 19 59 34 64 34 5 0 9 -12 9 -27 0 -22 27
-55 132 -160 73 -73 129 -136 124 -140 -9 -9 -88 -8 -134 2 -21 5 -37 3 -47
-5 -13 -10 -19 -10 -33 3 -10 9 -41 17 -72 19 l-55 3 -3 -393 -2 -392 -625 0
-624 0 -15 22 c-14 20 -16 153 -16 1228 0 1078 2 1208 16 1228 l15 22 549 0
c515 -1 549 -2 544 -18z m29 -99 c-7 -2 -13 -13 -13 -23 0 -10 -6 -20 -13 -23
-17 -7 -44 9 -34 20 5 4 13 1 18 -7 8 -12 9 -10 4 7 -4 15 -1 23 12 26 24 6
41 7 26 0z m55 -207 c-2 -22 -28 -27 -28 -4 0 5 -4 6 -10 3 -5 -3 -10 -2 -10
4 0 5 10 12 23 14 12 2 23 5 24 6 2 0 2 -10 1 -23z m-331 -12 c-3 -4 -14 -3
-24 0 -15 6 -15 8 -3 16 16 10 39 -4 27 -16z m165 -26 c9 2 30 -4 46 -12 16
-8 32 -13 34 -10 3 2 19 9 37 14 29 8 30 7 20 -11 -6 -12 -17 -18 -25 -15 -8
3 -12 2 -9 -3 11 -18 -16 -23 -40 -7 -32 21 -38 20 -25 -5 7 -12 18 -18 26
-15 8 3 14 2 14 -2 0 -15 -16 -30 -35 -34 -11 -1 -26 -9 -33 -15 -13 -13 -32
-18 -32 -9 0 15 14 36 24 36 6 0 17 4 25 9 12 8 12 13 -3 36 -12 17 -23 24
-33 20 -9 -3 -20 0 -25 7 -12 19 -10 30 5 21 6 -4 20 -6 29 -5z m-212 -27 c0
-4 -9 -7 -19 -8 -13 -1 -18 3 -15 12 5 13 34 10 34 -4z m100 0 c0 -5 -9 -11
-20 -14 -20 -5 -26 3 -13 16 9 10 33 8 33 -2z m125 -10 c3 -5 2 -12 -3 -15 -5
-3 -9 1 -9 9 0 17 3 19 12 6z m-295 -31 c0 -5 -7 -7 -15 -4 -8 4 -15 8 -15 10
0 2 7 4 15 4 8 0 15 -4 15 -10z m54 4 c23 -9 20 -19 -6 -21 -17 -2 -19 0 -9 7
11 6 9 9 -10 13 -13 2 -16 5 -7 6 9 0 23 -2 32 -5z m153 0 c-3 -3 -12 -4 -19
-1 -8 3 -5 6 6 6 11 1 17 -2 13 -5z m51 -14 c-7 -11 -17 -20 -22 -20 -5 0 -1
9 9 20 10 11 20 20 22 20 2 0 -2 -9 -9 -20z m-106 -25 c14 -19 8 -24 -17 -13
-13 6 -22 15 -19 19 6 11 27 7 36 -6z m48 -24 c0 -5 -7 -12 -16 -15 -14 -5
-15 -4 -4 9 14 17 20 19 20 6z m-169 -18 c12 -15 12 -16 -3 -10 -11 4 -21 0
-27 -11 -9 -15 -10 -15 -11 5 0 12 6 24 13 26 6 3 13 6 13 6 1 1 8 -7 15 -16z
m266 -23 c15 0 16 2 3 10 -13 8 -12 10 3 10 9 0 17 -4 17 -9 0 -5 9 -12 19
-16 15 -4 18 -12 14 -38 -3 -18 -10 -35 -16 -39 -20 -12 -20 0 -2 28 15 24 16
26 1 21 -55 -23 -53 -23 -33 -3 26 27 28 26 -61 28 -41 1 -42 2 -21 14 15 8
30 9 41 3 9 -5 25 -9 35 -9z m-252 -20 c-3 -5 -14 -10 -23 -10 -15 0 -15 2 -2
10 20 13 33 13 25 0z m350 -20 c-3 -5 -10 -10 -16 -10 -5 0 -9 5 -9 10 0 6 7
10 16 10 8 0 12 -4 9 -10z m-865 -10 c0 -5 -2 -10 -4 -10 -3 0 -8 5 -11 10 -3
6 -1 10 4 10 6 0 11 -4 11 -10z m727 -14 c-4 -10 -1 -13 9 -9 8 3 14 -1 14
-11 0 -18 -25 -22 -36 -5 -4 8 -9 7 -15 -2 -4 -7 -11 -10 -15 -6 -8 8 24 47
39 47 5 0 7 -7 4 -14z m-683 -11 c3 -10 -1 -15 -12 -15 -12 0 -8 -6 12 -19 16
-11 31 -27 32 -35 3 -23 -13 -19 -38 9 -12 14 -28 25 -35 25 -18 0 -16 17 3
24 8 3 12 10 9 16 -3 5 0 10 8 10 8 0 17 -7 21 -15z m236 -15 c8 -5 12 -11 10
-14 -3 -2 -14 2 -24 10 -22 15 -10 19 14 4z m549 -44 c29 -16 16 -22 -58 -25
-30 -1 -58 -4 -63 -7 -4 -3 -8 1 -8 8 0 9 14 15 43 17 23 1 44 6 45 12 5 12
12 11 41 -5z m-149 -11 c11 -13 8 -15 -19 -15 -33 0 -42 16 -13 23 9 3 18 5
18 6 1 0 7 -6 14 -14z m223 -12 c-7 -2 -19 -2 -25 0 -7 3 -2 5 12 5 14 0 19
-2 13 -5z m-925 -10 c-10 -2 -26 -2 -35 0 -10 3 -2 5 17 5 19 0 27 -2 18 -5z
m422 -4 c0 -5 -4 -7 -10 -4 -5 3 -22 -1 -37 -9 -29 -15 -21 -20 27 -16 14 1
22 -1 19 -4 -8 -9 -109 -17 -109 -9 1 9 80 52 98 52 6 1 12 -4 12 -10z m-453
-55 c-3 -3 -12 -4 -19 -1 -8 3 -5 6 6 6 11 1 17 -2 13 -5z m-40 -10 c-3 -3
-12 -4 -19 -1 -8 3 -5 6 6 6 11 1 17 -2 13 -5z m289 -6 c4 -7 4 -10 -1 -6 -4
4 -14 3 -22 -4 -7 -6 -17 -8 -20 -4 -4 4 -1 11 7 16 20 13 27 12 36 -2z m123
-11 c0 -9 -2 -8 -6 1 -2 6 -10 9 -15 6 -7 -4 -8 -2 -4 5 9 13 26 5 25 -12z
m-223 -32 c17 -13 17 -14 2 -15 -9 0 -20 5 -23 11 -4 6 -13 8 -21 5 -8 -3 -14
-1 -14 4 0 15 34 12 56 -5z m288 6 c3 -5 -1 -11 -9 -14 -9 -4 -12 -1 -8 9 6
16 10 17 17 5z m-84 -15 c-19 -7 -41 -11 -49 -8 -9 3 -12 1 -7 -6 5 -8 2 -10
-8 -6 -17 7 -20 16 -9 27 3 4 29 7 57 6 l51 -1 -35 -12z m170 -15 c0 -4 -10
-7 -22 -6 -13 1 -28 -2 -34 -7 -17 -13 -54 -18 -54 -8 0 5 14 11 30 15 17 4
30 10 30 14 0 5 11 6 25 3 14 -2 25 -8 25 -11z m265 9 c-3 -5 -12 -10 -18 -10
-7 0 -6 4 3 10 19 12 23 12 15 0z m118 -32 c21 -11 23 -40 2 -32 -8 4 -15 14
-15 23 0 11 -3 12 -8 4 -5 -8 -13 -9 -22 -3 -10 6 -20 4 -32 -7 -24 -22 -23
-54 2 -60 15 -4 20 -13 18 -34 -1 -16 -5 -29 -9 -29 -4 0 -5 -9 -2 -20 3 -11
0 -20 -6 -20 -5 0 -8 7 -5 15 6 14 -17 21 -48 16 -5 0 -8 13 -8 30 0 27 -2 30
-15 19 -8 -7 -13 -15 -11 -19 3 -4 1 -13 -5 -21 -6 -10 -9 -11 -9 -3 0 10 -6
10 -26 1 -21 -10 -27 -9 -35 3 -5 8 -9 9 -9 3 0 -6 -7 -11 -15 -11 -23 0 -18
16 8 26 13 5 29 16 35 24 11 13 10 17 -5 26 -12 7 -13 10 -4 11 11 0 11 3 1
15 -16 20 3 45 29 38 13 -3 17 -11 13 -25 -3 -15 -1 -19 6 -14 7 4 15 0 18 -8
3 -9 10 -13 16 -10 5 3 1 12 -9 20 -10 7 -15 14 -10 15 4 1 12 3 17 4 6 1 18
3 27 4 9 0 14 4 10 7 -3 3 0 12 6 20 13 14 66 10 100 -8z m132 -19 c60 -53 87
-111 93 -195 3 -56 0 -86 -13 -120 -47 -124 -191 -203 -318 -174 -56 13 -144
66 -165 100 -11 18 -10 20 10 22 13 0 29 1 36 1 10 -1 10 2 0 15 -8 9 -8 13
-2 9 7 -4 17 0 24 8 16 19 30 19 30 -1 0 -8 -4 -13 -8 -10 -5 3 -9 -1 -9 -9 0
-12 23 -15 125 -14 120 0 123 1 107 19 -9 10 -12 21 -7 24 6 3 12 -1 16 -9 8
-23 26 -18 26 8 0 32 -11 68 -19 63 -4 -3 -13 -1 -19 3 -17 10 -5 38 19 44 16
4 19 14 19 60 0 31 -5 59 -11 63 -8 4 -8 9 0 17 6 6 11 33 11 59 0 26 4 48 10
48 5 0 25 -14 45 -31z m-1148 -24 c1 -15 0 -15 -3 -3 -3 9 -13 19 -22 22 -12
3 -12 4 3 3 12 -1 21 -10 22 -22z m554 1 c19 -13 19 -13 -6 -13 -14 0 -25 4
-25 9 0 5 -9 4 -19 -2 -17 -9 -38 0 -26 11 10 11 59 8 76 -5z m390 -13 c-8
-15 -10 -15 -11 -2 0 17 10 32 18 25 2 -3 -1 -13 -7 -23z m-521 -13 c0 -5 -7
-7 -15 -4 -8 4 -15 8 -15 10 0 2 7 4 15 4 8 0 15 -4 15 -10z m-374 -15 c15
-11 16 -15 4 -16 -8 0 -25 -2 -37 -3 -12 -1 -20 1 -17 6 3 4 13 8 22 9 14 0
13 2 -3 9 -14 6 -16 9 -4 9 8 1 24 -6 35 -14z m489 5 c-3 -5 -1 -10 5 -10 6 0
10 -8 8 -17 -2 -11 -15 -18 -38 -19 -19 -2 -29 -1 -22 2 6 3 12 10 12 15 0 6
-4 8 -9 4 -5 -3 -12 -1 -16 5 -4 6 4 10 19 10 14 0 28 5 31 10 3 6 8 10 11 10
3 0 2 -4 -1 -10z m455 -40 c0 -5 5 -9 12 -7 6 1 14 -6 16 -16 4 -18 3 -18 -22
-2 -26 18 -34 35 -16 35 6 0 10 -4 10 -10z m-846 -30 c14 0 17 -3 9 -11 -8 -8
-17 -8 -31 0 -16 8 -21 7 -26 -4 -6 -17 -36 -21 -36 -5 0 6 7 10 15 10 9 0 18
7 22 16 4 11 9 12 16 5 6 -6 20 -11 31 -11z m339 10 c8 0 8 -3 1 -10 -12 -12
-44 -3 -44 12 0 6 7 7 16 4 9 -3 21 -6 27 -6z m-200 -27 c-7 -2 -19 -2 -25 0
-7 3 -2 5 12 5 14 0 19 -2 13 -5z m548 -12 c-7 -5 -11 -13 -8 -17 3 -5 -1 -18
-9 -28 -11 -16 -16 -17 -29 -6 -13 11 -18 11 -24 1 -6 -9 -11 -9 -20 3 -10 12
-6 16 26 26 21 7 42 16 48 21 5 5 14 9 20 9 5 0 4 -4 -4 -9z m-334 -7 c-3 -3
-12 -4 -19 -1 -8 3 -5 6 6 6 11 1 17 -2 13 -5z m350 -26 c-3 -8 -6 -5 -6 6 -1
11 2 17 5 13 3 -3 4 -12 1 -19z m-738 -26 c-7 -3 -17 -9 -20 -15 -7 -11 -29
-1 -29 13 0 11 30 18 49 11 13 -4 13 -5 0 -9z m434 -9 c-7 -3 -13 -9 -13 -14
0 -6 5 -7 10 -4 6 3 10 2 10 -3 0 -5 -9 -12 -21 -15 -12 -3 -18 -10 -15 -16 7
-11 -42 -53 -54 -46 -5 3 -12 1 -15 -5 -5 -8 -11 -7 -21 1 -12 9 -10 14 9 28
12 10 30 20 40 24 9 4 16 12 15 18 -3 12 54 50 62 41 3 -2 -1 -7 -7 -9z m-107
0 c-3 -4 -17 -8 -29 -10 -17 -2 -19 -1 -7 7 17 11 47 14 36 3z m418 -44 c-2
-4 6 -9 17 -12 12 -3 18 -10 14 -17 -5 -8 -11 -8 -19 -1 -7 6 -16 8 -19 4 -4
-3 -9 2 -13 11 -3 9 -11 13 -17 9 -6 -3 -7 -1 -3 5 3 6 15 10 26 9 10 -1 17
-4 14 -8z m-857 -15 c-3 -3 -12 -4 -19 -1 -8 3 -5 6 6 6 11 1 17 -2 13 -5z
m343 -34 c0 -5 -5 -10 -11 -10 -5 0 -7 5 -4 10 3 6 8 10 11 10 2 0 4 -4 4 -10z
m400 -4 c0 -3 -4 -8 -10 -11 -5 -3 -10 -1 -10 4 0 6 5 11 10 11 6 0 10 -2 10
-4z m767 -676 c11 -21 13 -22 13 -6 0 16 3 17 12 8 15 -15 45 -16 50 -1 2 7
12 7 31 -2 29 -13 34 -24 15 -32 -7 -3 1 -6 18 -6 38 -1 66 -28 44 -41 -12 -7
-11 -10 3 -16 30 -11 18 -23 -18 -17 -23 4 -35 2 -35 -6 0 -6 3 -10 8 -10 34
6 72 -3 72 -16 0 -8 4 -15 9 -15 5 0 11 -9 14 -19 4 -16 1 -18 -17 -12 -11 4
-42 6 -68 4 -36 -2 -50 1 -60 15 -7 10 -28 18 -48 19 -19 1 -39 2 -43 2 -5 1
-5 10 -2 22 6 18 4 20 -13 15 -14 -5 -30 2 -53 23 -27 25 -30 32 -20 45 8 9
17 13 22 10 5 -3 9 0 9 5 0 6 -4 11 -9 11 -5 0 -11 7 -14 14 -4 10 -1 13 9 9
9 -3 14 1 14 12 0 25 42 15 57 -15z m743 -20 c0 -5 -7 -10 -15 -10 -8 0 -15 5
-15 10 0 6 7 10 15 10 8 0 15 -4 15 -10z m-950 -45 c6 -3 10 -2 10 3 0 15 67
5 94 -15 14 -10 23 -24 21 -30 -3 -8 4 -13 15 -13 11 0 20 -2 20 -4 0 -2 3
-12 6 -20 5 -12 2 -15 -10 -10 -12 5 -15 2 -10 -10 5 -14 2 -15 -22 -6 -27 9
-28 9 -10 -5 24 -18 7 -20 -29 -3 -18 8 -25 18 -22 30 4 15 2 16 -14 7 -15 -8
-21 -6 -25 6 -4 9 -13 14 -20 11 -21 -8 -66 15 -60 31 3 8 -1 16 -9 19 -8 4
-15 10 -15 15 0 9 63 4 80 -6z m983 -95 c7 0 6 -4 -3 -10 -12 -8 -10 -10 10
-10 22 -1 23 -2 7 -11 -9 -6 -15 -14 -12 -19 3 -4 -5 -6 -17 -2 -21 5 -22 4
-9 -11 12 -15 9 -21 -11 -18 -5 0 -8 -4 -8 -10 0 -5 -4 -7 -10 -4 -5 3 -10 2
-10 -4 0 -5 4 -12 10 -16 5 -3 7 -12 4 -20 -4 -8 -11 -12 -17 -8 -6 3 -7 1 -3
-5 4 -7 15 -12 24 -13 12 0 11 -3 -6 -9 -23 -10 -52 -3 -64 14 -5 7 -8 6 -8
-2 0 -8 9 -16 20 -19 30 -8 24 -26 -7 -20 -40 7 -141 46 -123 47 8 1 0 8 -17
16 -40 17 -43 35 -6 28 26 -5 27 -5 9 14 -13 15 -14 22 -5 27 7 5 19 -2 30
-16 10 -13 19 -18 19 -11 0 6 8 12 18 12 12 0 10 5 -10 18 -30 18 -36 32 -14
32 24 0 46 -12 40 -21 -3 -5 0 -9 6 -9 7 0 10 7 7 15 -8 19 11 31 26 16 6 -6
16 -11 21 -11 6 0 4 6 -3 13 -10 10 -3 14 31 24 24 6 49 9 56 7 8 -2 19 -4 25
-4z m-1038 -55 c22 -7 39 -18 38 -24 -2 -6 4 -8 12 -5 9 4 15 0 15 -10 0 -8 9
-24 20 -34 21 -19 21 -19 -16 -15 -20 2 -46 10 -58 18 -11 8 -33 15 -48 15
-16 0 -28 5 -28 11 0 7 12 10 30 7 34 -5 43 17 10 27 -11 3 -20 11 -20 16 0
11 -3 12 45 -6z m311 -46 c-12 18 52 4 75 -18 18 -17 20 -23 10 -35 -16 -20
-103 -16 -109 5 -3 8 -9 17 -15 20 -5 4 -7 14 -4 23 6 14 11 15 28 5 14 -7 19
-7 15 0z m334 -14 c0 -11 -7 -14 -27 -11 -45 9 -52 26 -10 26 26 0 37 -4 37
-15z m-83 -21 c-3 -3 -12 -4 -19 -1 -8 3 -5 6 6 6 11 1 17 -2 13 -5z m67 -18
c9 4 22 1 30 -5 7 -6 21 -8 31 -5 14 6 16 3 10 -14 -3 -12 -2 -22 3 -22 5 0
12 10 15 22 l6 22 29 -27 c15 -15 35 -27 43 -28 15 -1 17 0 -39 -20 -22 -9
-22 -10 -6 -26 20 -20 2 -32 -21 -13 -7 6 -24 12 -37 13 -25 2 -88 45 -88 60
0 4 -7 15 -15 23 -22 22 -19 37 4 24 11 -5 27 -7 35 -4z m-512 -41 c15 -3 32
-14 38 -24 9 -18 7 -19 -27 -14 -20 3 -44 14 -55 25 -29 29 -29 29 44 13z
m249 -31 c8 -8 27 -14 42 -14 17 0 32 -9 42 -24 11 -17 29 -26 60 -30 l44 -7
-26 -30 c-14 -16 -30 -29 -35 -29 -16 0 -88 35 -88 43 0 12 -22 32 -43 40 -10
4 -17 13 -15 21 2 7 -8 23 -22 35 l-25 22 25 -7 c14 -3 32 -13 41 -20z m470
-22 c-5 -8 -18 -16 -30 -17 -26 -2 -26 3 -3 25 21 21 46 15 33 -8z m-528 -58
c20 -27 12 -30 -42 -10 -19 7 -35 19 -36 27 -4 24 57 11 78 -17z m463 -44 c9
0 12 5 8 12 -4 7 -3 8 5 4 6 -4 9 -12 6 -17 -4 -5 5 -9 19 -9 26 0 48 -21 28
-28 -25 -8 -11 -18 21 -15 l32 4 -35 -17 c-38 -19 -44 -20 -78 -22 -13 -1 -21
-6 -17 -11 7 -13 -58 -9 -67 4 -5 6 -8 5 -8 -2 0 -17 -32 -17 -48 -1 -10 10
-14 10 -21 0 -10 -17 -43 19 -47 51 -2 20 3 23 37 23 27 1 39 -3 39 -12 0 -8
-5 -14 -11 -14 -5 0 -7 -5 -4 -10 4 -6 15 -8 25 -5 10 3 21 1 25 -5 3 -5 20
-9 36 -8 22 2 31 9 35 25 4 13 13 23 21 23 8 0 11 5 8 10 -3 6 -15 10 -25 10
-14 0 -18 5 -13 17 4 11 8 12 11 5 2 -7 10 -12 18 -12z m-221 -18 c-3 -3 -11
0 -18 7 -9 10 -8 11 6 5 10 -3 15 -9 12 -12z m-251 -19 c4 -8 12 -13 19 -10 6
2 18 -2 25 -9 10 -11 10 -14 -1 -14 -25 0 -77 31 -77 45 0 18 26 9 34 -12z
m586 1 c0 -2 -7 -4 -15 -4 -8 0 -15 4 -15 10 0 5 7 7 15 4 8 -4 15 -8 15 -10z
m-140 -10 c0 -8 -4 -15 -10 -15 -35 -5 -45 -2 -48 11 -2 10 7 15 28 16 19 1
30 -4 30 -12z m-230 -29 c14 -8 35 -14 48 -15 40 0 23 -15 -21 -18 -32 -2 -49
3 -72 23 l-30 24 25 0 c14 0 36 -6 50 -14z"/>
<path d="M1150 2560 c-12 -8 -10 -10 8 -10 13 0 20 4 17 10 -7 12 -6 12 -25 0z"/>
<path d="M1310 2566 c0 -2 9 -6 20 -9 11 -3 20 -1 20 4 0 5 -9 9 -20 9 -11 0
-20 -2 -20 -4z"/>
<path d="M1035 2460 c3 -5 11 -10 16 -10 6 0 7 5 4 10 -3 6 -11 10 -16 10 -6
0 -7 -4 -4 -10z"/>
<path d="M994 2402 c4 -7 16 -17 28 -23 16 -9 19 -8 16 3 -3 7 -9 13 -14 13
-5 0 -15 4 -23 9 -10 6 -12 5 -7 -2z"/>
<path d="M935 2350 c-4 -6 -10 -8 -15 -5 -5 3 -11 1 -15 -5 -3 -5 -2 -10 4
-10 5 0 16 -3 25 -6 11 -4 14 0 13 15 -1 24 -3 25 -12 11z"/>
<path d="M1662 2250 c0 -14 2 -19 5 -12 2 6 2 18 0 25 -3 6 -5 1 -5 -13z"/>
<path d="M2125 2240 c-3 -5 -1 -10 4 -10 6 0 11 5 11 10 0 6 -2 10 -4 10 -3 0
-8 -4 -11 -10z"/>
<path d="M2007 2213 c-4 -3 -7 -11 -7 -17 0 -6 5 -5 12 2 6 6 9 14 7 17 -3 3
-9 2 -12 -2z"/>
<path d="M340 2125 c0 -8 5 -15 10 -15 6 0 10 7 10 15 0 8 -4 15 -10 15 -5 0
-10 -7 -10 -15z"/>
<path d="M814 2041 c3 -5 15 -7 26 -4 28 7 25 13 -6 13 -14 0 -23 -4 -20 -9z"/>
<path d="M256 1988 c3 -4 9 -8 15 -8 5 0 9 4 9 8 0 5 -7 9 -15 9 -8 0 -12 -4
-9 -9z"/>
<path d="M838 1008 c-10 -21 -12 -41 -7 -55 5 -14 3 -27 -7 -40 -9 -10 -13
-12 -9 -5 11 22 -15 13 -41 -15 -16 -17 -21 -29 -13 -33 7 -5 5 -9 -6 -14 -9
-3 -14 -10 -11 -14 3 -5 -1 -18 -9 -28 -19 -25 -19 -58 0 -74 13 -10 15 -9 16
11 1 21 2 21 6 4 3 -11 10 -23 15 -26 6 -4 12 -29 13 -55 2 -27 4 -53 4 -57 1
-5 6 -5 12 -1 8 4 9 -1 4 -16 -5 -17 -4 -21 5 -15 9 5 11 4 6 -4 -4 -6 -2 -19
6 -28 11 -14 10 -15 -10 -9 -13 5 -22 3 -22 -3 0 -6 6 -11 14 -11 16 0 17 -7
41 -150 9 -52 21 -99 26 -104 5 -6 9 -18 9 -28 0 -24 36 -24 48 0 6 9 12 71
14 137 3 66 9 128 13 138 5 13 2 17 -11 17 -18 1 -18 1 -1 14 14 11 15 15 5
19 -10 4 -10 8 2 17 12 9 9 10 -15 6 -25 -5 -27 -4 -12 5 14 8 16 14 7 24 -7
8 -9 23 -5 35 5 16 12 19 27 14 17 -5 20 -3 15 11 -4 9 0 23 8 31 35 35 0 94
-49 85 -5 -1 -4 5 4 13 7 10 28 16 52 16 36 0 40 -2 35 -20 -4 -15 2 -24 22
-34 31 -16 45 -11 55 21 10 30 -21 59 -73 68 -33 5 -42 3 -47 -9 -8 -20 -38
-21 -54 0 -11 12 -11 15 0 12 7 -2 16 8 20 22 5 21 7 22 13 8 4 -12 15 -17 32
-16 32 3 32 14 0 22 -14 4 -25 11 -25 17 0 6 -9 8 -22 4 -16 -4 -19 -3 -9 3 9
7 10 12 2 16 -6 4 -11 12 -11 17 0 6 5 7 10 4 16 -10 16 42 0 59 -5 5 -6 -1
-3 -14 4 -16 2 -21 -8 -18 -7 2 -16 15 -19 29 -9 38 -43 36 -62 -3z m50 -34
c12 -4 22 -10 22 -13 0 -4 -10 -7 -22 -5 -13 1 -26 3 -30 3 -5 1 -8 6 -8 11 0
11 6 12 38 4z m-43 -84 c3 -5 1 -10 -4 -10 -6 0 -11 5 -11 10 0 6 2 10 4 10 3
0 8 -4 11 -10z m17 -87 c10 -13 -18 -33 -46 -33 -22 0 -27 14 -13 43 14 30 40
40 46 17 2 -8 7 -20 13 -27z m193 17 c3 -5 1 -10 -4 -10 -6 0 -11 5 -11 10 0
6 2 10 4 10 3 0 8 -4 11 -10z m-277 -25 c1 -18 -2 -23 -13 -19 -11 5 -12 11
-4 25 13 25 14 24 17 -6z m122 -25 c0 -5 -4 -10 -10 -10 -5 0 -10 5 -10 10 0
6 5 10 10 10 6 0 10 -4 10 -10z m30 -12 c0 6 7 12 16 12 9 0 14 -7 12 -17 -5
-25 -42 -23 -46 2 -3 16 -1 17 7 5 7 -10 11 -11 11 -2z m-64 -51 c1 -20 -1
-35 -4 -32 -3 3 -16 -2 -29 -10 -23 -15 -23 -15 -11 4 6 11 16 19 21 18 5 -1
11 3 14 10 3 7 -3 9 -16 6 -16 -4 -21 -1 -21 14 0 51 45 42 46 -10z m49 -7 c3
-6 -1 -7 -9 -4 -18 7 -21 14 -7 14 6 0 13 -4 16 -10z m-15 -157 c0 -7 5 -13
11 -13 5 0 7 -5 3 -11 -5 -8 -10 -6 -16 5 -5 9 -16 16 -24 16 -8 0 -13 4 -10
8 8 14 36 10 36 -5z m-15 -23 c3 -5 1 -10 -4 -10 -6 0 -11 5 -11 10 0 6 2 10
4 10 3 0 8 -4 11 -10z"/>
<path d="M825 810 c-3 -5 1 -10 10 -10 9 0 13 5 10 10 -3 6 -8 10 -10 10 -2 0
-7 -4 -10 -10z"/>
<path d="M2056 878 c3 -5 10 -6 15 -3 13 9 11 12 -6 12 -8 0 -12 -4 -9 -9z"/>
<path d="M449 788 c-7 -13 -18 -29 -26 -36 -17 -18 -17 -18 34 -25 36 -4 43
-2 49 15 5 16 8 18 15 7 7 -11 9 -11 9 -1 0 23 -32 62 -51 62 -10 0 -24 -10
-30 -22z"/>
<path d="M530 801 c0 -6 4 -13 10 -16 6 -3 7 1 4 9 -7 18 -14 21 -14 7z"/>
<path d="M570 771 c0 -6 4 -13 10 -16 6 -3 7 1 4 9 -7 18 -14 21 -14 7z"/>
<path d="M540 750 c0 -13 5 -18 15 -14 12 5 13 10 4 20 -15 19 -19 18 -19 -6z"/>
<path d="M214 751 c83 -8 88 -31 7 -31 l-61 0 0 -35 0 -34 47 2 c37 2 48 -2
51 -14 2 -10 -3 -17 -10 -16 -33 1 -91 -3 -87 -7 2 -2 47 -7 99 -10 52 -4 96
-9 99 -12 2 -2 -41 -4 -97 -4 l-102 0 0 -64 0 -63 71 1 c38 1 72 -2 75 -6 5
-7 -51 -13 -83 -9 -7 1 -13 -4 -13 -11 0 -9 -3 -9 -10 2 -7 11 -10 11 -10 2 0
-7 -4 -11 -9 -8 -8 6 -21 -15 -21 -34 0 -5 13 -11 29 -15 22 -5 35 -1 56 19
29 27 80 35 87 14 3 -9 16 -8 53 1 45 11 51 11 63 -6 13 -17 14 -17 26 0 7 9
18 17 24 17 6 0 16 9 22 19 13 24 13 34 1 26 -6 -3 -6 6 -1 24 4 16 5 33 2 37
-4 4 0 5 8 2 10 -3 16 -20 18 -47 3 -41 4 -43 30 -37 15 4 47 11 72 17 24 5
49 14 54 19 13 13 15 70 3 70 -5 0 -2 7 7 15 16 16 27 19 25 8 -4 -27 3 -41
19 -37 13 4 17 16 17 60 l0 55 -32 -6 c-25 -4 -34 -2 -42 14 -14 26 -14 31 4
31 22 0 18 17 -4 23 -14 3 -23 -3 -31 -23 -9 -22 -17 -27 -43 -27 -18 1 -38 7
-46 15 -7 7 -16 10 -20 6 -3 -4 0 -9 7 -11 6 -3 12 -8 12 -13 0 -10 -67 13
-82 28 -15 15 -55 15 -64 1 -5 -8 -9 -8 -14 1 -4 7 -32 13 -64 14 -60 1 -76
19 -33 36 15 6 -7 8 -73 8 -83 -1 -87 -2 -36 -7z m186 -75 c0 -11 -19 -15 -25
-6 -3 5 1 10 9 10 9 0 16 -2 16 -4z m345 -54 c-3 -3 -11 0 -18 7 -9 10 -8 11
6 5 10 -3 15 -9 12 -12z"/>
<path d="M350 750 c0 -6 7 -10 15 -10 8 0 15 2 15 4 0 2 -7 6 -15 10 -8 3 -15
1 -15 -4z"/>
<path d="M590 735 c0 -5 5 -17 10 -25 5 -8 10 -10 10 -5 0 6 -5 17 -10 25 -5
8 -10 11 -10 5z"/>
<path d="M1241 694 c0 -11 3 -14 6 -6 3 7 2 16 -1 19 -3 4 -6 -2 -5 -13z"/>
<path d="M986 664 c-4 -9 -4 -19 -1 -22 2 -3 7 3 11 12 4 9 4 19 1 22 -2 3 -7
-3 -11 -12z"/>
<path d="M1145 670 c3 -5 10 -10 16 -10 5 0 9 5 9 10 0 6 -7 10 -16 10 -8 0
-12 -4 -9 -10z"/>
<path d="M1275 670 c-3 -5 -1 -10 4 -10 6 0 11 5 11 10 0 6 -2 10 -4 10 -3 0
-8 -4 -11 -10z"/>
<path d="M1150 640 c0 -5 11 -10 25 -10 14 0 25 5 25 10 0 6 -11 10 -25 10
-14 0 -25 -4 -25 -10z"/>
<path d="M1112 624 c-7 -8 -8 -14 -3 -14 10 0 25 19 20 25 -2 1 -10 -3 -17
-11z"/>
<path d="M997 616 c-6 -15 15 -18 61 -10 35 7 26 19 -17 22 -26 1 -40 -2 -44
-12z"/>
<path d="M861 194 c-6 -13 -7 -23 -3 -23 4 1 16 1 27 -1 20 -1 20 -1 0 -9 -17
-7 -17 -8 8 -13 22 -4 27 -2 27 16 0 46 -42 67 -59 30z"/>
<path d="M1071 1724 c0 -11 3 -14 6 -6 3 7 2 16 -1 19 -3 4 -6 -2 -5 -13z"/>
<path d="M1158 1715 c2 -14 6 -25 8 -25 2 0 4 11 4 25 0 14 -4 25 -9 25 -4 0
-6 -11 -3 -25z"/>
<path d="M1156 1663 c-6 -14 -5 -15 5 -6 7 7 10 15 7 18 -3 3 -9 -2 -12 -12z"/>
<path d="M740 1460 c-8 -5 -12 -12 -9 -15 4 -3 12 1 19 10 14 17 11 19 -10 5z"/>
<path d="M1732 706 c7 -7 19 -11 27 -8 11 4 10 7 -5 13 -29 12 -36 10 -22 -5z"/>
<path d="M1850 659 c0 -5 5 -7 10 -4 6 3 10 8 10 11 0 2 -4 4 -10 4 -5 0 -10
-5 -10 -11z"/>
<path d="M1590 660 c0 -5 5 -10 11 -10 5 0 7 5 4 10 -3 6 -8 10 -11 10 -2 0
-4 -4 -4 -10z"/>
<path d="M1940 286 c0 -9 30 -14 35 -6 4 6 -3 10 -14 10 -12 0 -21 -2 -21 -4z"/>
</g>
</svg>
