<?xml version="1.0" standalone="no"?>
<!DOCTYPE svg PUBLIC "-//W3C//DTD SVG 20010904//EN"
 "http://www.w3.org/TR/2001/REC-SVG-20010904/DTD/svg10.dtd">
<svg version="1.0" xmlns="http://www.w3.org/2000/svg"
 width="512.000000pt" height="512.000000pt" viewBox="0 0 512.000000 512.000000"
 preserveAspectRatio="xMidYMid meet">
<metadata>
Created by potrace 1.14, written by Peter Selinger 2001-2017
</metadata>
<g transform="translate(0.000000,512.000000) scale(0.100000,-0.100000)"
fill="#000000" stroke="none">
<path d="M1040 4913 c-261 -46 -490 -182 -642 -383 -64 -84 -141 -242 -170
-350 l-23 -85 0 -1605 0 -1605 27 -97 c84 -306 272 -536 543 -669 119 -57 216
-85 345 -99 128 -13 2942 -13 3070 0 129 14 226 42 345 99 118 58 206 122 295
217 157 167 246 365 270 603 6 62 10 443 10 962 0 846 0 859 -20 859 -19 0
-19 13 -23 663 -3 636 -4 665 -24 732 -59 196 -123 312 -248 444 -122 128
-252 214 -406 267 -161 55 -135 54 -1794 53 -841 -1 -1541 -4 -1555 -6z m1005
-775 c113 -25 209 -87 262 -171 79 -126 67 -342 -29 -506 -40 -67 -273 -304
-411 -416 l-98 -80 320 -3 321 -2 0 -135 0 -135 -515 0 -515 0 0 123 0 122
117 100 c65 55 190 172 279 260 220 219 284 318 285 448 1 71 -17 101 -82 135
-38 20 -55 23 -124 19 -94 -4 -125 -18 -194 -87 -28 -28 -52 -50 -55 -50 -8 0
-221 151 -224 158 -5 15 90 111 144 147 125 83 339 113 519 73z m1305 0 c135
-33 244 -119 303 -241 61 -126 87 -268 86 -482 0 -464 -129 -687 -430 -741
-219 -40 -437 26 -541 164 -92 121 -128 257 -135 517 -6 213 7 335 51 463 53
156 157 266 298 311 93 30 263 34 368 9z m7 -1693 c230 -22 372 -158 375 -359
1 -119 -50 -201 -178 -285 l-75 -49 71 -42 c129 -76 178 -133 206 -243 29
-113 2 -251 -66 -337 -96 -121 -307 -182 -550 -159 -115 11 -202 37 -275 84
-95 60 -138 132 -155 259 -24 170 37 301 186 397 35 23 64 43 64 44 0 2 -23
17 -50 35 -68 44 -135 120 -154 177 -22 66 -20 166 5 241 34 101 127 181 254
217 65 19 189 34 245 29 19 -2 63 -6 97 -9z m-1009 -492 l2 -473 85 0 85 0 0
-125 0 -125 -85 0 -85 0 0 -120 0 -120 -140 0 -140 0 0 120 0 120 -360 0 -360
0 0 134 0 134 352 466 352 467 145 -3 146 -3 3 -472z"/>
<path d="M3095 3891 c-121 -55 -167 -188 -168 -481 0 -294 49 -435 170 -485
48 -20 129 -19 178 4 117 53 167 198 167 481 0 283 -50 428 -167 481 -51 24
-129 24 -180 0z"/>
<path d="M3130 2218 c-94 -26 -141 -143 -90 -225 23 -39 100 -97 157 -119 42
-16 43 -16 100 12 71 36 139 102 151 146 20 78 -32 164 -115 187 -47 13 -155
13 -203 -1z"/>
<path d="M3172 1616 c-98 -53 -132 -84 -159 -143 -48 -104 -16 -206 80 -256
48 -25 168 -33 237 -17 60 14 116 59 136 107 34 80 5 187 -65 243 -30 23 -157
101 -164 100 -1 0 -30 -16 -65 -34z"/>
<path d="M1849 1765 l-216 -280 215 -3 c118 -1 217 -1 219 1 2 2 2 129 1 283
l-3 278 -216 -279z"/>
</g>
</svg>
